<svg viewBox="0 0 40 40" fill="none" xmlns="http://www.w3.org/2000/svg">
<path d="M20.0067 13.5557C22.0408 13.5557 23.3942 10.9162 25.8792 10.6C28.3642 10.2837 29.555 10.6 31.6108 12.252C33.6667 13.9041 35 16.4307 35 21.3185C35 26.2063 33.7542 29.8555 31.2192 32.5106C29.8517 33.9428 28.725 34.9014 26.8758 35.7068C25.9425 36.1129 25.0308 36.047 23.945 35.8065C22.8592 35.5668 22.0258 34.488 20 34.488V34.4896C17.9517 34.4896 17.1183 35.5685 16.07 35.8073C15.0225 36.0478 14.0575 36.1137 13.1242 35.7068C11.275 34.9022 10.1942 33.8366 8.8275 32.4044C6.29333 29.7493 5 26.1602 5 21.3193C5 16.4768 6.26667 13.9041 8.13333 12.252C10 10.6 11.1817 10.2458 13.3383 10.6C15.4942 10.9533 17.9725 13.5557 20.0067 13.5557ZM20.0067 13.5557C20.6606 7.18523 23.4393 4 28.3415 4C28.7915 5.3402 28.9076 6.63785 28.6899 7.89294C28.5871 8.48865 28.2668 9.33828 27.729 10.4418M11.8574 22.1182C11.6268 23.2267 11.6268 24.3679 11.8574 25.5417C12.0874 26.715 12.5782 27.6209 13.3299 28.2594" stroke-linecap="round"/>
</svg>
