<svg viewBox="0 0 40 40" fill="none" xmlns="http://www.w3.org/2000/svg">
<path d="M35.3 12.35L28.5 15.75M28.5 15.75L27.65 16.175L20 20M28.5 15.75V21.7M28.5 15.75L12.35 7.25M20 20L4.7 12.35M20 20V36.15M26.0826 5.3494L29.4826 7.1344C33.1393 9.0537 34.9685 10.0125 35.9851 11.738C37 13.4618 37 15.6089 37 19.9014V20.1003C37 24.3911 37 26.5382 35.9851 28.262C34.9685 29.9875 33.1393 30.948 29.4826 32.8673L26.0826 34.6506C23.0974 36.2163 21.6048 37 20 37C18.3952 37 16.9026 36.218 13.9174 34.6506L10.5174 32.8656C6.8607 30.9463 5.0315 29.9875 4.0149 28.262C3 26.5382 3 24.3911 3 20.102V19.9031C3 15.6106 3 13.4635 4.0149 11.7397C5.0315 10.0142 6.8607 9.0537 10.5174 7.1361L13.9174 5.3511C16.9026 3.7837 18.3952 3 20 3C21.6048 3 23.0974 3.782 26.0826 5.3494Z" stroke-linecap="round"/>
</svg>
