<svg viewBox="0 0 40 40" fill="none" xmlns="http://www.w3.org/2000/svg">
<path d="M36.5283 17.5C36.5583 17.76 36.5822 18.0211 36.6 18.2833C36.6883 19.6666 36.6883 21.1 36.6 22.4833C36.1433 29.555 30.59 35.1883 23.6166 35.65C21.2081 35.8087 18.7918 35.8087 16.3833 35.65C15.5333 35.592 14.6977 35.4013 13.9066 35.085C13.0533 34.735 12.6266 34.5583 12.4083 34.585C12.1916 34.6116 11.8766 34.8433 11.2483 35.3083C10.1383 36.125 8.73996 36.715 6.66496 36.6633C5.61662 36.6383 5.09329 36.625 4.85829 36.225C4.62329 35.825 4.91496 35.2716 5.49996 34.1633C6.31162 32.6266 6.82496 30.8666 6.04662 29.4583C4.70496 27.445 3.56662 25.06 3.39996 22.485C3.31167 21.0864 3.31167 19.6836 3.39996 18.285C3.85662 11.2133 9.40996 5.58164 16.3833 5.1183C18.4195 4.98429 20.4615 4.96371 22.5 5.05664M14.1666 25H25.8333M14.1666 16.6666H18.3333" stroke-linecap="round" stroke-linejoin="round"/>
<path d="M34.78 4.06664L35.935 5.21997C36.4036 5.68879 36.6669 6.32456 36.6669 6.98747C36.6669 7.65038 36.4036 8.28615 35.935 8.75497L29.8883 14.915C29.4126 15.3901 28.8043 15.7102 28.1433 15.8333L24.3966 16.6483C24.2604 16.6779 24.1189 16.6729 23.9851 16.6337C23.8513 16.5944 23.7295 16.5223 23.6308 16.4238C23.5321 16.3252 23.4597 16.2036 23.4203 16.0698C23.3808 15.9361 23.3756 15.7946 23.405 15.6583L24.2033 11.9333C24.3264 11.2723 24.6465 10.664 25.1216 10.1883L31.245 4.06497C31.7138 3.5963 32.3496 3.33301 33.0125 3.33301C33.6754 3.33301 34.3111 3.5963 34.78 4.06497" stroke-linecap="round" stroke-linejoin="round"/>
</svg>
