<svg viewBox="0 0 40 40" fill="none" xmlns="http://www.w3.org/2000/svg">
<path d="M8.36842 11.9467L3 12.8414C4.45842 6.11837 8.69411 3.90032 12.8421 3.89406C15.5236 3.88959 18.1676 4.81206 20 5.68353C21.8324 4.81206 24.4737 3.89406 27.1579 3.89406C31.2835 3.89406 35.5416 6.11837 37 12.8414L31.6316 11.9467C32.1317 13.8256 33.2314 17.129 31.6316 19.9993C28.9653 17.6077 22.8005 13.9965 20 11.9467C17.1995 13.9965 11.0347 17.6077 8.36842 19.9993C6.76863 17.1299 7.86826 13.8256 8.36842 11.9467Z" stroke-linecap="round" stroke-linejoin="round"/>
<path d="M20 11.9476C19.3245 15.4272 18.3797 24.056 20 30.737" stroke-linecap="round" stroke-linejoin="round"/>
<path d="M9.26318 36.1054H30.7369C26.4538 32.0031 24.4737 30.7415 20 30.737C15.5263 30.7325 10.956 33.763 9.26318 36.1054Z" stroke-linecap="round" stroke-linejoin="round"/>
</svg>
