<svg viewBox="0 0 160 160" fill="none" xmlns="http://www.w3.org/2000/svg">
<path d="M146.113 69.9999C146.233 71.0399 146.329 72.0843 146.4 73.1332C146.753 78.6665 146.753 84.3999 146.4 89.9332C144.573 118.22 122.36 140.753 94.4665 142.6C84.8325 143.235 75.1672 143.235 65.5332 142.6C62.1333 142.368 58.7906 141.605 55.6265 140.34C52.2132 138.94 50.5065 138.233 49.6332 138.34C48.7665 138.447 47.5065 139.373 44.9932 141.233C40.5532 144.5 34.9598 146.86 26.6598 146.653C22.4665 146.553 20.3732 146.5 19.4332 144.9C18.4932 143.3 19.6598 141.087 21.9998 136.653C25.2465 130.507 27.2998 123.467 24.1865 117.833C18.8198 109.78 14.2665 100.24 13.5998 89.9399C13.2467 84.3454 13.2467 78.7343 13.5998 73.1399C15.4265 44.8532 37.6398 22.3265 65.5332 20.4732C73.6778 19.9372 81.846 19.8548 89.9998 20.2265M56.6665 99.9999H103.333M56.6665 66.6665H73.3332" stroke-linecap="round" stroke-linejoin="round"/>
<path d="M139.12 16.2666L143.74 20.8799C145.615 22.7552 146.668 25.2983 146.668 27.9499C146.668 30.6015 145.615 33.1446 143.74 35.0199L119.553 59.6599C117.65 61.5603 115.217 62.8407 112.573 63.3332L97.5865 66.5932C97.0415 66.7117 96.4755 66.6916 95.9404 66.5347C95.4052 66.3777 94.9179 66.089 94.5232 65.695C94.1285 65.301 93.839 64.8142 93.6812 64.2793C93.5233 63.7444 93.5023 63.1784 93.6199 62.6332L96.8132 47.7332C97.3057 45.0893 98.5862 42.6562 100.487 40.7532L124.98 16.2599C126.855 14.3852 129.398 13.332 132.05 13.332C134.701 13.332 137.245 14.3852 139.12 16.2599" stroke-linecap="round" stroke-linejoin="round"/>
</svg>
