<svg viewBox="0 0 40 40" fill="none" xmlns="http://www.w3.org/2000/svg">
<path d="M18.6198 21.7279L13.9998 12.4999L22.1298 18.9199C23.2848 19.8319 23.2908 21.5704 22.1418 22.4899C21.8725 22.7056 21.5585 22.8586 21.2226 22.9376C20.8867 23.0166 20.5375 23.0198 20.2002 22.9468C19.863 22.8738 19.5463 22.7265 19.2731 22.5156C19 22.3048 18.7773 22.0357 18.6213 21.7279M9.49979 9.22988C8.07221 10.6292 6.93872 12.2997 6.16593 14.1433C5.39315 15.9869 4.99666 17.9664 4.99977 19.9654C4.99977 28.2694 11.7153 35 19.9998 35C28.2844 35 34.9999 28.2694 34.9999 19.9654C35.0023 16.5 33.8072 13.1403 31.6169 10.4549C29.4265 7.76948 26.3755 5.92348 22.9803 5.22936C21.7263 4.97436 21.0993 4.84836 20.5503 5.29986C19.9998 5.74986 19.9998 6.48037 19.9998 7.93987V9.44288" stroke-linecap="round" stroke-linejoin="round"/>
</svg>
