<svg viewBox="0 0 40 40" fill="none" xmlns="http://www.w3.org/2000/svg">
<path d="M27.5012 12.4987L32.7504 7.24962M27.5012 12.4987V5M27.5012 12.4987H35M14.7534 16.2481H14.7684M20.7524 14.7484H20.7674M13.2536 22.2471H13.2686M19.2526 20.7474H19.2676M25.2516 19.2476H25.2666M11.7539 28.2461H11.7689M17.7529 26.7464H17.7679M23.7519 25.2466H23.7669M5.15498 27.6462C4.92497 28.6384 4.95136 29.6728 5.23164 30.6519C5.51193 31.6311 6.03689 32.5228 6.75707 33.2429C7.47724 33.9631 8.36891 34.4881 9.34806 34.7684C10.3272 35.0486 11.3616 35.075 12.3538 34.845L25.8515 31.6955C27.5664 31.3331 29.1473 30.5023 30.4183 29.2954C31.6894 28.0885 32.6009 26.5528 33.0516 24.8589C33.5022 23.1651 33.4744 21.3795 32.9711 19.7005C32.4678 18.0215 31.5089 16.515 30.2008 15.3483L24.5018 9.7992C23.2737 8.58043 21.7434 7.71047 20.0679 7.27863C18.3925 6.8468 16.6323 6.86865 14.9681 7.34195C13.3039 7.81526 11.7957 8.72295 10.5983 9.97184C9.40085 11.2207 8.55738 12.7658 8.15448 14.4484L5.15498 27.6462Z" stroke-linecap="round" stroke-linejoin="round"/>
</svg>
