<svg viewBox="0 0 40 40" fill="none" xmlns="http://www.w3.org/2000/svg">
<path d="M25.8201 12.4998H25.8334M30.8201 12.4998H30.8334M36.6667 12.1382C36.6667 16.5415 32.9351 20.1115 28.3334 20.1115C27.7912 20.1115 27.254 20.0615 26.7217 19.9615C26.3384 19.8898 26.1467 19.8548 26.0134 19.8748C25.8801 19.8948 25.6901 19.9948 25.3134 20.1965C24.235 20.7713 22.9939 20.9646 21.7917 20.7448C22.2512 20.1771 22.5628 19.5042 22.6984 18.7865C22.7817 18.3448 22.5751 17.9165 22.2651 17.6032C20.8187 16.1516 20.0046 14.1873 20.0001 12.1382C20.0001 7.7365 23.7317 4.1665 28.3334 4.1665C32.9351 4.1665 36.6667 7.7365 36.6667 12.1382ZM12.5034 35.8332H7.8634C7.32507 35.8332 6.7834 35.7565 6.2884 35.5448C4.6784 34.8532 3.86007 33.9382 3.48007 33.3665C3.37694 33.2082 3.32627 33.0214 3.33524 32.8326C3.34422 32.6438 3.41238 32.4627 3.53007 32.3148C5.39674 29.8348 9.73007 28.3382 12.5117 28.3382C15.2917 28.3382 19.6184 29.8348 21.4851 32.3148C21.7201 32.6265 21.7517 33.0415 21.5351 33.3665C21.1534 33.9382 20.3351 34.8532 18.7251 35.5448C18.2249 35.7461 17.6891 35.8442 17.1501 35.8332H12.5034ZM17.1434 19.6482C17.1425 20.2558 17.022 20.8572 16.7887 21.4182C16.5553 21.9792 16.2138 22.4888 15.7836 22.9178C15.3533 23.3468 14.8428 23.6868 14.2811 23.9185C13.7195 24.1502 13.1177 24.269 12.5101 24.2682C11.2836 24.2691 10.1069 23.7829 9.23872 22.9166C8.37053 22.0503 7.88184 20.8747 7.88007 19.6482C7.88073 19.0406 8.00105 18.4391 8.23417 17.878C8.46728 17.3169 8.80863 16.8072 9.23872 16.3781C9.66881 15.9489 10.1792 15.6087 10.7408 15.3768C11.3024 15.1449 11.9042 15.0258 12.5117 15.0265C13.1193 15.0258 13.7211 15.1449 14.2827 15.3768C14.8443 15.6087 15.3547 15.9489 15.7848 16.3781C16.2148 16.8072 16.5562 17.3169 16.7893 17.878C17.0224 18.4391 17.1427 19.0406 17.1434 19.6482Z" stroke-linecap="round" stroke-linejoin="round"/>
</svg>
