<svg width="401" height="113" viewBox="0 0 401 113" fill="none" xmlns="http://www.w3.org/2000/svg">
<g clip-path="url(#clip0_1047_7354)">
<mask id="mask0_1047_7354" style="mask-type:luminance" maskUnits="userSpaceOnUse" x="0" y="-22" width="401" height="135">
<path d="M401 -22H0V113H401V-22Z" fill="white"/>
</mask>
<g mask="url(#mask0_1047_7354)">
<path d="M142.07 67.7633H134.32V35.8633H162.57V67.7633H154.79V42.7033H142.07V67.7633Z" fill="#6DBF4B"/>
<path d="M178.792 43.6418C180.658 43.5883 182.512 43.963 184.21 44.7372C185.909 45.5114 187.408 46.6645 188.591 48.1079C189.775 49.5514 190.612 51.2468 191.039 53.0641C191.466 54.8815 191.47 56.7724 191.052 58.5918H173.792C174.202 59.6301 174.926 60.5146 175.862 61.1218C176.851 61.748 178.002 62.0713 179.172 62.0518C180.167 62.1111 181.16 61.8964 182.041 61.4309C182.923 60.9654 183.66 60.267 184.172 59.4118L190.102 62.1418C188.987 63.9901 187.417 65.5222 185.542 66.5918C183.544 67.7226 181.278 68.2959 178.982 68.2517C177.309 68.2974 175.643 68.0087 174.082 67.4026C172.521 66.7964 171.097 65.885 169.892 64.7218C168.7 63.599 167.757 62.238 167.125 60.7271C166.492 59.2162 166.185 57.5892 166.222 55.9518C166.183 54.3189 166.482 52.6955 167.102 51.1843C167.721 49.673 168.648 48.3067 169.822 47.1718C171.002 46.0083 172.404 45.0957 173.946 44.489C175.488 43.8823 177.136 43.5941 178.792 43.6418ZM178.792 49.8418C177.766 49.8278 176.761 50.1394 175.922 50.7318C175.049 51.3299 174.357 52.1567 173.922 53.1218H183.632C183.297 52.1174 182.643 51.2502 181.769 50.6525C180.895 50.0549 179.85 49.7596 178.792 49.8118V49.8418Z" fill="#6DBF4B"/>
<path d="M207.368 67.7603H200.078V50.4503H192.648V44.0703H214.788V50.4503H207.358L207.368 67.7603Z" fill="#6DBF4B"/>
<path d="M233.442 43.6428C234.805 43.6343 236.151 43.95 237.368 44.5637C238.585 45.1775 239.639 46.0718 240.442 47.1728C242.251 49.7414 243.222 52.8062 243.222 55.9478C243.222 59.0894 242.251 62.1542 240.442 64.7228C239.639 65.8238 238.585 66.7181 237.368 67.3318C236.151 67.9456 234.805 68.2612 233.442 68.2528C231.574 68.2814 229.765 67.5986 228.382 66.3428C226.886 64.951 225.812 63.1663 225.282 61.1928V76.9128H217.992V44.0728H225.282V50.6428C225.81 48.6712 226.884 46.8891 228.382 45.5028C229.771 44.2625 231.581 43.5975 233.442 43.6428ZM230.702 61.6428C231.37 61.647 232.031 61.5041 232.638 61.2241C233.244 60.9441 233.782 60.534 234.212 60.0228C235.155 58.8895 235.671 57.4619 235.671 55.9878C235.671 54.5137 235.155 53.0861 234.212 51.9528C233.782 51.4416 233.244 51.0315 232.638 50.7515C232.031 50.4715 231.37 50.3285 230.702 50.3328C229.978 50.3107 229.257 50.4418 228.586 50.7176C227.916 50.9933 227.312 51.4074 226.812 51.9328C225.826 53.0536 225.283 54.4951 225.283 55.9878C225.283 57.4804 225.826 58.922 226.812 60.0428C227.316 60.5576 227.923 60.9601 228.594 61.2237C229.264 61.4874 229.983 61.6064 230.702 61.5728V61.6428Z" fill="#6DBF4B"/>
<path d="M249.637 64.6928C248.475 63.5458 247.552 62.1796 246.923 60.6732C246.293 59.1669 245.969 57.5505 245.969 55.9178C245.969 54.2851 246.293 52.6688 246.923 51.1624C247.552 49.6561 248.475 48.2898 249.637 47.1428C252.12 44.8724 255.362 43.6133 258.727 43.6133C262.091 43.6133 265.334 44.8724 267.817 47.1428C268.979 48.2898 269.901 49.6561 270.531 51.1624C271.161 52.6688 271.485 54.2851 271.485 55.9178C271.485 57.5505 271.161 59.1669 270.531 60.6732C269.901 62.1796 268.979 63.5458 267.817 64.6928C265.334 66.9633 262.091 68.2223 258.727 68.2223C255.362 68.2223 252.12 66.9633 249.637 64.6928ZM255.017 51.8828C254.055 53.0074 253.527 54.4383 253.527 55.9178C253.527 57.3973 254.055 58.8282 255.017 59.9528C255.49 60.4635 256.064 60.8709 256.703 61.1495C257.341 61.4281 258.03 61.572 258.727 61.572C259.423 61.572 260.112 61.4281 260.751 61.1495C261.389 60.8709 261.963 60.4635 262.437 59.9528C263.392 58.8255 263.917 57.3956 263.917 55.9178C263.917 54.44 263.392 53.0101 262.437 51.8828C261.963 51.3721 261.389 50.9647 260.751 50.6861C260.112 50.4075 259.423 50.2637 258.727 50.2637C258.03 50.2637 257.341 50.4075 256.703 50.6861C256.064 50.9647 255.49 51.3721 255.017 51.8828Z" fill="#6DBF4B"/>
<path d="M282.433 67.7603H275.133V44.0703H293.793V50.4503H282.433V67.7603Z" fill="#6DBF4B"/>
<path d="M311.997 43.6426C313.36 43.6326 314.706 43.9475 315.924 44.5614C317.141 45.1753 318.194 46.0704 318.997 47.1726C320.806 49.7412 321.777 52.806 321.777 55.9476C321.777 59.0892 320.806 62.1541 318.997 64.7226C318.194 65.8249 317.141 66.72 315.924 67.3339C314.706 67.9478 313.36 68.2627 311.997 68.2526C310.129 68.2792 308.321 67.5967 306.937 66.3427C305.441 64.9508 304.367 63.1661 303.837 61.1926V76.9126H296.547V44.0726H303.837V50.6426C304.364 48.671 305.439 46.889 306.937 45.5026C308.327 44.2641 310.135 43.5994 311.997 43.6426ZM309.267 61.6426C309.935 61.6448 310.595 61.501 311.201 61.2211C311.807 60.9413 312.345 60.5322 312.777 60.0227C313.714 58.8868 314.227 57.4602 314.227 55.9876C314.227 54.5151 313.714 53.0885 312.777 51.9526C312.345 51.4431 311.807 51.034 311.201 50.7542C310.595 50.4743 309.935 50.3305 309.267 50.3326C308.541 50.3117 307.819 50.4432 307.147 50.7188C306.475 50.9945 305.869 51.408 305.367 51.9327C304.381 53.0535 303.837 54.495 303.837 55.9876C303.837 57.4803 304.381 58.9218 305.367 60.0426C305.873 60.5567 306.482 60.9586 307.154 61.2221C307.826 61.4857 308.546 61.6051 309.267 61.5726V61.6426Z" fill="#6DBF4B"/>
<path d="M334.423 65.7603L340.423 44.0703H347.793L338.793 76.8803H331.413L333.923 67.7603H327.993L321.383 44.0703H329.223L334.423 65.7603Z" fill="#6DBF4B"/>
<path d="M356.892 67.7603H349.602V44.0703H372.842V67.7603H365.552V50.4503H356.892V67.7603Z" fill="#6DBF4B"/>
<path d="M384.688 67.7603H377.398V44.0703H400.638V67.7603H393.348V50.4503H384.688V67.7603Z" fill="#6DBF4B"/>
<path fill-rule="evenodd" clip-rule="evenodd" d="M39.2342 3.61662L25.9699 11.3001L12.7455 18.9935C8.7906 21.1377 5.50606 24.3418 3.25747 28.2488C1.00887 32.156 -0.115547 36.6128 0.00938538 41.1234V71.8771C-0.115129 76.3889 1.00935 80.8466 3.2578 84.7554C5.50625 88.6641 8.79056 91.8696 12.7455 94.0165L26.0097 101.7L39.274 109.383C43.1027 111.748 47.5098 113 52.0051 113C56.5004 113 60.9075 111.748 64.7362 109.383L78.0005 101.7L91.2548 94.0165C95.2098 91.8696 98.4941 88.6641 100.743 84.7554C102.991 80.8466 104.115 76.3889 103.991 71.8771V41.1234C104.116 36.6128 102.991 32.156 100.743 28.2488C98.4943 24.3418 95.2097 21.1377 91.2548 18.9935L78.0005 11.3001L64.7362 3.61662C60.9075 1.25196 56.5004 0 52.0051 0C47.5098 0 43.1027 1.25196 39.274 3.61662H39.2342Z" fill="#F55D17"/>
<path d="M36.9164 80.061C35.3887 80.061 33.9235 79.454 32.8433 78.374C31.763 77.2941 31.1562 75.829 31.1562 74.3014V38.4414C31.1562 37.6854 31.3053 36.9369 31.5949 36.2386C31.8845 35.5404 32.3091 34.906 32.8441 34.372C33.3791 33.8379 34.0139 33.4146 34.7127 33.1262C35.4115 32.8378 36.1604 32.6901 36.9164 32.6914H67.3663C68.8913 32.6914 70.3537 33.2972 71.4321 34.3755C72.5104 35.4538 73.1163 36.9164 73.1163 38.4414V74.3014C73.1163 75.8273 72.5108 77.2909 71.4328 78.371C70.3547 79.451 68.8922 80.059 67.3663 80.061C66.6103 80.061 65.8617 79.912 65.1634 79.623C64.4652 79.333 63.831 78.909 63.297 78.374C62.7629 77.8387 62.3396 77.2037 62.0512 76.5049C61.7628 75.8061 61.615 75.0573 61.6163 74.3014V48.6414C61.6163 47.8854 61.4672 47.1369 61.1776 46.4387C60.8881 45.7404 60.4636 45.1061 59.9286 44.572C59.3936 44.0379 58.7585 43.6146 58.0597 43.3262C57.3609 43.0378 56.6122 42.8901 55.8563 42.8914H48.4164C47.6609 42.8901 46.9125 43.0379 46.2143 43.3264C45.5161 43.6149 44.8817 44.0384 44.3475 44.5726C43.8133 45.1068 43.3897 45.7412 43.1012 46.4394C42.8127 47.1376 42.6651 47.8859 42.6664 48.6414V74.3514C42.6532 75.8686 42.0418 77.3194 40.9652 78.388C39.8886 79.457 38.4337 80.059 36.9164 80.061Z" fill="white"/>
</g>
</g>
<defs>
<clipPath id="clip0_1047_7354">
<rect width="401" height="113" fill="white"/>
</clipPath>
</defs>
</svg>
