<svg width="49" height="36" viewBox="0 0 49 36" fill="none" xmlns="http://www.w3.org/2000/svg">
<g clip-path="url(#clip0_972_7049)">
<path d="M44.3333 0H4.66667C2.08934 0 0 2.14903 0 4.8V31.2C0 33.851 2.08934 36 4.66667 36H44.3333C46.9107 36 49 33.851 49 31.2V4.8C49 2.14903 46.9107 0 44.3333 0Z" fill="white"/>
<path fill-rule="evenodd" clip-rule="evenodd" d="M0 24.75H49V36H0V24.75ZM0 0H49V11.25H0V0Z" fill="#3ECBF8"/>
<path d="M24.5 21.5984C26.433 21.5984 28 19.9867 28 17.9984C28 16.0102 26.433 14.3984 24.5 14.3984C22.567 14.3984 21 16.0102 21 17.9984C21 19.9867 22.567 21.5984 24.5 21.5984Z" fill="#FFDA2C"/>
</g>
<defs>
<clipPath id="clip0_972_7049">
<rect width="49" height="36" rx="4.5" fill="white"/>
</clipPath>
</defs>
</svg>
