<svg width="49" height="36" viewBox="0 0 49 36" fill="none" xmlns="http://www.w3.org/2000/svg">
<rect width="49" height="36" rx="4.5" fill="#249F58"/>
<path fill-rule="evenodd" clip-rule="evenodd" d="M24.4922 4.79883L41.9922 17.9988L24.4922 31.1988L6.99219 17.9988" fill="#FFDA2C"/>
<path d="M24.5026 26.3977C29.0129 26.3977 32.6693 22.6368 32.6693 17.9977C32.6693 13.3585 29.0129 9.59766 24.5026 9.59766C19.9923 9.59766 16.3359 13.3585 16.3359 17.9977C16.3359 22.6368 19.9923 26.3977 24.5026 26.3977Z" fill="#1A47B8"/>
<path fill-rule="evenodd" clip-rule="evenodd" d="M21 21.6016V24.0016H23.3333V21.6016H21ZM25.6667 21.6016V24.0016H28V21.6016H25.6667Z" fill="white"/>
<path fill-rule="evenodd" clip-rule="evenodd" d="M18.6719 14.3965C18.6719 14.3965 23.9545 15.3565 27.7625 17.0317L32.6719 19.1965" fill="white"/>
<path d="M18.6719 14.3965C18.6719 14.3965 23.9545 15.3565 27.7625 17.0317L32.6719 19.1965" stroke="white" stroke-width="2.25"/>
</svg>
