<svg width="49" height="36" viewBox="0 0 49 36" fill="none" xmlns="http://www.w3.org/2000/svg">
<g clip-path="url(#clip0_972_7085)">
<rect width="49" height="36" rx="4.5" fill="#F93939"/>
<path d="M44.3333 0H4.66667C2.08934 0 0 2.14903 0 4.8V31.2C0 33.851 2.08934 36 4.66667 36H44.3333C46.9107 36 49 33.851 49 31.2V4.8C49 2.14903 46.9107 0 44.3333 0Z" fill="#F93939"/>
<path fill-rule="evenodd" clip-rule="evenodd" d="M12.8221 17.3512L9.3921 19.2064L10.0454 15.2776L7.27344 12.4936L11.1071 11.9248L12.8221 8.34882L14.5348 11.9248L18.3684 12.4936L15.5918 15.2776L16.2498 19.204L12.8221 17.3512ZM20.9934 7.19922H23.3268V9.59922H20.9934V7.19922ZM23.3268 11.9992H25.6601V14.3992H23.3268V11.9992ZM23.3268 16.7992H25.6601V19.1992H23.3268V16.7992ZM20.9934 21.5992H23.3268V23.9992H20.9934V21.5992Z" fill="#FFDA2C"/>
</g>
<defs>
<clipPath id="clip0_972_7085">
<rect width="49" height="36" rx="4.5" fill="white"/>
</clipPath>
</defs>
</svg>
