<svg width="49" height="36" viewBox="0 0 49 36" fill="none" xmlns="http://www.w3.org/2000/svg">
<g clip-path="url(#clip0_972_7104)">
<rect width="49" height="36" rx="4.5" fill="white"/>
<path fill-rule="evenodd" clip-rule="evenodd" d="M24.5052 23.9961C27.7252 23.9961 30.3385 21.3081 30.3385 17.9961C30.3385 14.6841 27.7252 11.9961 24.5052 11.9961C21.2852 11.9961 18.6719 14.6841 18.6719 17.9961C18.6719 21.3081 21.2852 23.9961 24.5052 23.9961ZM24.5052 21.5961C26.4372 21.5961 28.0052 19.9833 28.0052 17.9961C28.0052 16.0089 26.4372 14.3961 24.5052 14.3961C22.5732 14.3961 21.0052 16.0089 21.0052 17.9961C21.0052 19.9833 22.5732 21.5961 24.5052 21.5961Z" fill="#1A47B8"/>
<path d="M24.5026 19.1969C25.1469 19.1969 25.6693 18.6596 25.6693 17.9969C25.6693 17.3341 25.1469 16.7969 24.5026 16.7969C23.8583 16.7969 23.3359 17.3341 23.3359 17.9969C23.3359 18.6596 23.8583 19.1969 24.5026 19.1969Z" fill="#1A47B8"/>
<path fill-rule="evenodd" clip-rule="evenodd" d="M0 24.75H49V36H0V24.75Z" fill="#249F58"/>
<path fill-rule="evenodd" clip-rule="evenodd" d="M0 0H49V11.25H0V0Z" fill="#FF6C2D"/>
</g>
<defs>
<clipPath id="clip0_972_7104">
<rect width="49" height="36" rx="4.5" fill="white"/>
</clipPath>
</defs>
</svg>
