<svg width="49" height="36" viewBox="0 0 49 36" fill="none" xmlns="http://www.w3.org/2000/svg">
<g clip-path="url(#clip0_972_7079)">
<rect width="49" height="36" rx="4.5" fill="white"/>
<path fill-rule="evenodd" clip-rule="evenodd" d="M24.5052 21.5965C27.7252 21.5965 30.3385 19.9837 30.3385 17.9965C30.3385 16.0093 27.7252 14.3965 24.5052 14.3965C21.2852 14.3965 18.6719 16.0093 18.6719 17.9965C18.6719 19.9837 21.2852 21.5965 24.5052 21.5965ZM24.5052 19.7965C26.4372 19.7965 28.0052 18.5869 28.0052 17.0965C28.0052 15.6085 26.4372 14.3965 24.5052 14.3965C22.5732 14.3965 21.0052 15.6061 21.0052 17.0965C21.0052 18.5845 22.5732 19.7965 24.5052 19.7965Z" fill="#F93939"/>
<path d="M24.5026 19.1965C25.1469 19.1965 25.6693 18.122 25.6693 16.7965C25.6693 15.471 25.1469 14.3965 24.5026 14.3965C23.8583 14.3965 23.3359 15.471 23.3359 16.7965C23.3359 18.122 23.8583 19.1965 24.5026 19.1965Z" fill="#AF010D"/>
<path fill-rule="evenodd" clip-rule="evenodd" d="M0 24.75H49V36H0V24.75Z" fill="#F93939"/>
<path fill-rule="evenodd" clip-rule="evenodd" d="M0 0H49V11.25H0V0Z" fill="#00B731"/>
</g>
<defs>
<clipPath id="clip0_972_7079">
<rect width="49" height="36" rx="4.5" fill="white"/>
</clipPath>
</defs>
</svg>
