<svg viewBox="0 0 40 40" fill="none" xmlns="http://www.w3.org/2000/svg">
<path d="M18.3005 9.73143V33.2352C17.9231 33.2352 17.1496 32.8082 15.6059 31.9541C14.0368 31.0858 11.8692 30.2211 9.0913 29.6776C5.9734 29.0706 4.41615 28.767 3.70722 27.8688C3 26.9688 3 25.5324 3 22.6542V11.3479C3 8.20146 3 6.62736 4.10334 5.65855C5.20497 4.68974 6.50042 4.94209 9.0896 5.44679C14.2034 6.4456 17.2499 8.53322 18.3005 9.73143ZM18.3005 9.73143C19.3511 8.53322 22.3976 6.4456 27.5114 5.44855C30.1006 4.94209 31.396 4.68974 32.4977 5.65855C33.601 6.62736 33.601 8.19969 33.601 11.3479V16.4707M35.0699 21.6589L36.2514 22.8801C36.4887 23.1253 36.6769 23.4169 36.8054 23.7379C36.9339 24.0589 37 24.403 37 24.7506C37 25.0982 36.9339 25.4424 36.8054 25.7634C36.6769 26.0844 36.4887 26.3759 36.2514 26.6212L30.0598 33.1434C29.5729 33.6484 28.9499 33.988 28.273 34.1176L24.436 34.9787C24.2968 35.011 24.1521 35.0065 24.0151 34.9655C23.878 34.9245 23.7531 34.8484 23.6519 34.7442C23.5506 34.64 23.4763 34.511 23.4356 34.3691C23.395 34.2272 23.3894 34.077 23.4194 33.9323L24.2354 29.9882C24.3629 29.2876 24.691 28.6435 25.1789 28.1406L31.4487 21.6571C31.9298 21.1604 32.5807 20.8815 33.2593 20.8815C33.9379 20.8815 34.5888 21.1621 35.0699 21.6589Z" stroke-linecap="round" stroke-linejoin="round"/>
</svg>
