<svg viewBox="0 0 40 40" fill="none" xmlns="http://www.w3.org/2000/svg">
<path d="M35 19V10.844C35 9.61356 35 8.99911 34.6993 8.36444C34.48 7.94376 34.1828 7.56891 33.8235 7.26C33.2748 6.82444 32.8161 6.72022 31.9 6.50867C30.474 6.182 28.9023 6 27.25 6C24.2787 6 21.5646 6.588 19.5 7.55556C17.4354 8.52311 14.7214 9.11111 11.75 9.11111C10.0977 9.11111 8.526 8.92911 7.1 8.60244C5.612 8.26022 4 9.31178 4 10.844V27.6004C4 28.8309 4 29.4469 4.3007 30.08C4.4712 30.4424 4.86335 30.9356 5.17645 31.1844C5.72515 31.62 6.18395 31.7242 7.1 31.9358C8.526 32.2624 10.0977 32.4444 11.75 32.4444C14.027 32.4444 16.202 32.0958 18 31.5M22.6 30.8889C22.6 30.8889 24.15 30.8889 25.7 34C25.7 34 30.6244 26.2222 35 24.6667M9.5357 20.6V20.6144M29.4643 17.3872V17.4032M24.4821 19.5C24.4821 21.9853 22.4746 24 19.9982 24C17.5218 24 15.5143 21.9853 15.5143 19.5C15.5143 17.0147 17.5218 15 19.9982 15C22.4746 15 24.4821 17.0147 24.4821 19.5Z" stroke-linecap="round" stroke-linejoin="round"/>
</svg>
