<svg viewBox="0 0 40 40" fill="none" xmlns="http://www.w3.org/2000/svg">
<rect x="3" y="25" width="34" height="10" rx="5"  stroke-linecap="round" stroke-dasharray="4 4"/>
<path d="M11 30C11 31.1046 10.1046 32 9 32C7.89543 32 7 31.1046 7 30C7 28.8954 7.89543 28 9 28C10.1046 28 11 28.8954 11 30Z" />
<path d="M22 30C22 31.1046 21.1046 32 20 32C18.8954 32 18 31.1046 18 30C18 28.8954 18.8954 28 20 28C21.1046 28 22 28.8954 22 30Z" />
<path d="M33 30C33 31.1046 32.1046 32 31 32C29.8954 32 29 31.1046 29 30C29 28.8954 29.8954 28 31 28C32.1046 28 33 28.8954 33 30Z" />
<path d="M9 9C9 7.89543 9.89543 7 11 7H15C16.1046 7 17 7.89543 17 9V18C17 19.1046 16.1046 20 15 20H11C9.89543 20 9 19.1046 9 18V9Z" />
<path d="M23 9C23 7.89543 23.8954 7 25 7H29C30.1046 7 31 7.89543 31 9V18C31 19.1046 30.1046 20 29 20H25C23.8954 20 23 19.1046 23 18V9Z" />
</svg>
