<svg viewBox="0 0 40 40" fill="none" xmlns="http://www.w3.org/2000/svg">
<path d="M30 12C31.0609 12 32.0783 11.5786 32.8284 10.8284C33.5786 10.0783 34 9.06087 34 8C34 6.93913 33.5786 5.92172 32.8284 5.17157C32.0783 4.42143 31.0609 4 30 4C28.9391 4 27.9217 4.42143 27.1716 5.17157C26.4214 5.92172 26 6.93913 26 8C26 9.06087 26.4214 10.0783 27.1716 10.8284C27.9217 11.5786 28.9391 12 30 12Z" />
<path d="M10.3974 13.6579L16.8005 11.3834L25.599 15.6905L16.8005 22.4166L25.599 28.3574L20.0048 36M29.0553 17.6565L31.2011 18.8537L36 14.229M14.277 25.7817L11.9008 28.9917L4 33.5375" stroke-linecap="round" stroke-linejoin="round"/>
</svg>
