<svg viewBox="0 0 40 40" fill="none" xmlns="http://www.w3.org/2000/svg">
<path d="M10.1 12.1667C9.57573 13.7792 9.19547 15.4675 9.2 17.1662C9.2 24.5307 14.0348 31 20 31M10.1 12.1667C10.1 12.1667 7.73845 10.1427 8.26405 7.08833C8.78965 4.03217 11.675 3 11.675 3C11.675 3 14.0366 5.024 13.511 8.07833C12.9854 11.1345 10.1 12.1667 10.1 12.1667ZM20 31C25.9652 31 30.7999 24.5307 30.7999 17.1662C30.8044 15.4675 30.4273 13.7765 29.903 12.164M20 31C25 31 25 36 25 36M20 31C15 31 15 36 15 36M31.7359 7.08833C32.2615 10.1427 29.8999 12.1667 29.8999 12.1667C29.8999 12.1667 27.0145 11.1345 26.4889 8.07833C25.9633 5.024 28.3249 3 28.3249 3C28.3249 3 31.2103 4.03217 31.7359 7.08833ZM36.3691 19.7567C34.0633 22.0777 30.9403 21.15 30.9403 21.15C30.9403 21.15 30.1232 17.9013 32.4307 15.5767C34.7347 13.2557 37.8595 14.1833 37.8595 14.1833C37.8595 14.1833 38.6767 17.432 36.3691 19.7567ZM29.7689 32C27.069 30.9458 26.6478 27.985 26.6478 27.985C26.6478 27.985 28.9283 26.082 31.6283 27.138C34.3283 28.1922 34.7477 31.153 34.7477 31.153C34.7477 31.153 32.4689 33.056 29.7689 32ZM10.2328 32C12.9328 30.9458 13.3522 27.985 13.3522 27.985C13.3522 27.985 11.0716 26.082 8.37161 27.138C5.67162 28.1922 5.25223 31.153 5.25223 31.153C5.25223 31.153 7.53282 33.056 10.2328 32ZM3.63087 19.7567C5.93666 22.0777 9.05965 21.15 9.05965 21.15C9.05965 21.15 9.87684 17.9013 7.56925 15.5767C5.26346 13.2575 2.14048 14.1833 2.14048 14.1833C2.14048 14.1833 1.32328 17.432 3.63087 19.7567Z" stroke-linecap="round" stroke-linejoin="round"/>
</svg>
