<svg viewBox="0 0 40 40" fill="none" xmlns="http://www.w3.org/2000/svg">
<path d="M12 15.2032C8.52 15.224 6.6352 15.392 5.4064 16.7232C4 18.2464 4 20.6976 4 25.6C4 30.5024 4 32.9536 5.4064 34.4768C6.8112 36 9.0752 36 13.6 36H26.4C30.9248 36 33.1888 36 34.5936 34.4768C35.9984 32.9536 36 30.5024 36 25.6C36 20.6976 36 18.2464 34.5936 16.7232C33.3648 15.392 31.48 15.224 28 15.2032M10.4 20L17.6 24.2M17.6 24.2L22.88 27.28M17.6 24.2L10.4 28.96M29.6 31.2L22.88 27.28M22.88 27.28L29.6 22.8M20 12C21.0609 12 22.0783 11.5786 22.8284 10.8284C23.5786 10.0783 24 9.06087 24 8C24 6.93913 23.5786 5.92172 22.8284 5.17157C22.0783 4.42143 21.0609 4 20 4C18.9391 4 17.9217 4.42143 17.1716 5.17157C16.4214 5.92172 16 6.93913 16 8C16 9.06087 16.4214 10.0783 17.1716 10.8284C17.9217 11.5786 18.9391 12 20 12ZM20 12V18.4" stroke-linecap="round" stroke-linejoin="round"/>
</svg>
