<svg width="651" height="217" viewBox="0 0 651 217" fill="none" xmlns="http://www.w3.org/2000/svg">
<path d="M230.849 144.115H218.256V93.0168H264.159V144.115H251.517V103.973H230.849V144.115Z" fill="white"/>
<path d="M290.515 105.479C293.547 105.393 296.56 105.994 299.319 107.234C302.079 108.474 304.515 110.321 306.437 112.633C308.361 114.945 309.721 117.661 310.415 120.572C311.109 123.483 311.116 126.512 310.436 129.426H282.391C283.057 131.09 284.233 132.506 285.754 133.479C287.361 134.482 289.231 135 291.133 134.969C292.749 135.064 294.363 134.72 295.794 133.974C297.228 133.228 298.425 132.11 299.257 130.74L308.893 135.113C307.081 138.073 304.53 140.528 301.483 142.241C298.237 144.052 294.555 144.971 290.824 144.9C288.105 144.973 285.398 144.511 282.862 143.54C280.325 142.569 278.011 141.109 276.053 139.246C274.117 137.447 272.584 135.267 271.557 132.847C270.529 130.427 270.03 127.82 270.09 125.198C270.027 122.582 270.512 119.981 271.52 117.561C272.526 115.14 274.032 112.951 275.94 111.133C277.857 109.27 280.135 107.808 282.641 106.836C285.146 105.864 287.824 105.403 290.515 105.479ZM290.515 115.41C288.848 115.388 287.215 115.887 285.852 116.836C284.433 117.794 283.309 119.118 282.602 120.664H298.38C297.835 119.055 296.773 117.666 295.352 116.709C293.932 115.752 292.234 115.279 290.515 115.362V115.41Z" fill="white"/>
<path d="M336.955 144.115H325.109V116.387H313.036V106.168H349.012V116.387H336.939L336.955 144.115Z" fill="white"/>
<path d="M379.316 105.479C381.531 105.465 383.718 105.971 385.695 106.954C387.673 107.937 389.386 109.37 390.69 111.133C393.63 115.248 395.208 120.157 395.208 125.189C395.208 130.222 393.63 135.131 390.69 139.246C389.386 141.009 387.673 142.442 385.695 143.425C383.718 144.408 381.531 144.913 379.316 144.9C376.281 144.946 373.341 143.852 371.094 141.84C368.663 139.611 366.918 136.752 366.057 133.591V158.772H354.211V106.168H366.057V116.692C366.915 113.534 368.66 110.679 371.094 108.458C373.351 106.472 376.292 105.406 379.316 105.479ZM374.864 134.312C375.949 134.319 377.023 134.09 378.01 133.641C378.994 133.193 379.868 132.536 380.567 131.717C382.099 129.902 382.938 127.615 382.938 125.254C382.938 122.892 382.099 120.606 380.567 118.79C379.868 117.971 378.994 117.314 378.01 116.866C377.023 116.417 375.949 116.188 374.864 116.195C373.687 116.16 372.516 116.37 371.425 116.812C370.337 117.253 369.355 117.917 368.543 118.758C366.941 120.553 366.058 122.863 366.058 125.254C366.058 127.644 366.941 129.954 368.543 131.749C369.362 132.574 370.348 133.218 371.439 133.641C372.527 134.063 373.695 134.254 374.864 134.2V134.312Z" fill="white"/>
<path d="M405.639 139.197C403.751 137.36 402.252 135.172 401.229 132.759C400.206 130.346 399.679 127.757 399.679 125.141C399.679 122.526 400.206 119.937 401.229 117.524C402.252 115.111 403.751 112.923 405.639 111.085C409.674 107.449 414.942 105.432 420.41 105.432C425.876 105.432 431.146 107.449 435.18 111.085C437.068 112.923 438.567 115.111 439.59 117.524C440.614 119.937 441.14 122.526 441.14 125.141C441.14 127.757 440.614 130.346 439.59 132.759C438.567 135.172 437.068 137.36 435.18 139.197C431.146 142.834 425.876 144.851 420.41 144.851C414.942 144.851 409.674 142.834 405.639 139.197ZM414.381 118.678C412.818 120.479 411.96 122.772 411.96 125.141C411.96 127.511 412.818 129.803 414.381 131.605C415.15 132.423 416.083 133.075 417.121 133.522C418.158 133.968 419.277 134.198 420.41 134.198C421.541 134.198 422.66 133.968 423.699 133.522C424.735 133.075 425.668 132.423 426.438 131.605C427.99 129.799 428.843 127.509 428.843 125.141C428.843 122.774 427.99 120.484 426.438 118.678C425.668 117.86 424.735 117.207 423.699 116.761C422.66 116.315 421.541 116.085 420.41 116.085C419.277 116.085 418.158 116.315 417.121 116.761C416.083 117.207 415.15 117.86 414.381 118.678Z" fill="white"/>
<path d="M458.92 144.115H447.058V106.168H477.379V116.387H458.92V144.115Z" fill="white"/>
<path d="M506.969 105.479C509.183 105.463 511.37 105.967 513.35 106.951C515.327 107.934 517.038 109.368 518.343 111.133C521.282 115.248 522.86 120.157 522.86 125.189C522.86 130.222 521.282 135.131 518.343 139.246C517.038 141.011 515.327 142.445 513.35 143.428C511.37 144.412 509.183 144.916 506.969 144.9C503.933 144.943 500.995 143.849 498.746 141.841C496.316 139.611 494.57 136.752 493.709 133.591V158.772H481.864V106.168H493.709V116.692C494.566 113.534 496.312 110.679 498.746 108.458C501.005 106.475 503.943 105.41 506.969 105.479ZM502.533 134.312C503.618 134.315 504.69 134.085 505.675 133.637C506.66 133.189 507.534 132.533 508.236 131.717C509.758 129.898 510.592 127.612 510.592 125.254C510.592 122.895 509.758 120.61 508.236 118.79C507.534 117.974 506.66 117.319 505.675 116.871C504.69 116.422 503.618 116.192 502.533 116.195C501.353 116.162 500.18 116.372 499.088 116.814C497.996 117.255 497.011 117.918 496.195 118.758C494.593 120.554 493.709 122.863 493.709 125.254C493.709 127.645 494.593 129.954 496.195 131.749C497.018 132.572 498.007 133.216 499.099 133.638C500.191 134.061 501.361 134.252 502.533 134.2V134.312Z" fill="white"/>
<path d="M543.399 140.911L553.148 106.168H565.124L550.5 158.724H538.508L542.586 144.115H532.951L522.21 106.168H534.949L543.399 140.911Z" fill="white"/>
<path d="M579.91 144.115H568.065V106.168H605.828V144.115H593.982V116.387H579.91V144.115Z" fill="white"/>
<path d="M625.083 144.115H613.237V106.168H651V144.115H639.154V116.387H625.083V144.115Z" fill="white"/>
<path fill-rule="evenodd" clip-rule="evenodd" d="M134.524 42.5751C140.803 43.7548 147.267 43.578 153.469 42.0569C159.672 40.5358 165.466 37.7065 170.452 33.7642C175.438 29.8218 179.498 24.8603 182.35 19.2219C185.203 13.5833 186.781 7.40181 186.976 1.10379C180.697 -0.0759313 174.234 0.10087 168.031 1.62201C161.829 3.14314 156.034 5.97242 151.048 9.91472C146.062 13.857 142.003 18.8186 139.15 24.4572C136.297 30.0956 134.719 36.277 134.524 42.5751Z" fill="white"/>
<path fill-rule="evenodd" clip-rule="evenodd" d="M42.344 53.4996L63.9715 41.1975H64.0365C70.2792 37.4114 77.465 35.4069 84.7947 35.4069C92.1243 35.4069 99.3101 37.4114 105.553 41.1975L148.792 65.8176C155.24 69.2508 160.595 74.3808 164.262 80.6364C167.927 86.8922 169.762 94.028 169.557 101.25V150.49C169.76 157.714 167.927 164.852 164.262 171.111C160.595 177.369 155.24 182.501 148.792 185.939L105.553 210.543C99.3101 214.329 92.1243 216.333 84.7947 216.333C77.465 216.333 70.2792 214.329 64.0365 210.543L20.7816 185.939C14.3331 182.501 8.97797 177.369 5.31186 171.111C1.64575 164.852 -0.187719 157.714 0.0153029 150.49V101.25C-0.188399 94.028 1.64497 86.8922 5.31132 80.6364C8.97766 74.3808 14.3331 69.2508 20.7816 65.8176L42.344 53.4996ZM53.3721 161.115C55.1273 162.845 57.5078 163.817 59.9902 163.817C62.4556 163.814 64.8199 162.85 66.5693 161.138C68.3186 159.426 69.3119 157.102 69.3334 154.671V113.488C69.3313 112.278 69.5714 111.079 70.0402 109.961C70.509 108.843 71.1971 107.826 72.0652 106.971C72.9332 106.115 73.964 105.437 75.0985 104.975C76.233 104.512 77.449 104.276 78.6766 104.278H90.7659C91.9941 104.276 93.2108 104.512 94.3463 104.974C95.4818 105.436 96.5136 106.114 97.383 106.97C98.2523 107.825 98.9421 108.841 99.4125 109.96C99.883 111.078 100.125 112.277 100.125 113.488V154.591C100.123 155.802 100.363 157.001 100.832 158.121C101.3 159.24 101.988 160.257 102.856 161.115C103.724 161.972 104.755 162.651 105.889 163.116C107.024 163.579 108.24 163.817 109.469 163.817C111.948 163.814 114.324 162.84 116.076 161.11C117.828 159.38 118.812 157.035 118.812 154.591V97.1497C118.812 94.7069 117.827 92.3641 116.075 90.6368C114.323 88.9096 111.946 87.9392 109.469 87.9392H59.9902C58.7617 87.9371 57.5452 88.1737 56.4097 88.6356C55.2742 89.0976 54.2424 89.7757 53.3731 90.6312C52.5038 91.4866 51.814 92.5028 51.3434 93.6212C50.8728 94.7397 50.6307 95.9387 50.6307 97.1497V154.591C50.6307 157.038 51.6167 159.385 53.3721 161.115Z" fill="white"/>
</svg>
