<svg width="401" height="135" viewBox="0 0 401 135" fill="none" xmlns="http://www.w3.org/2000/svg">
<g clip-path="url(#clip0_946_6697)">
<path d="M142.07 89.7613H134.32V57.8613H162.57V89.7613H154.79V64.7013H142.07V89.7613Z" fill="#6DBF4B"/>
<path d="M178.792 65.6418C180.658 65.5883 182.512 65.963 184.21 66.7372C185.909 67.5114 187.408 68.6645 188.591 70.1079C189.775 71.5514 190.612 73.2468 191.039 75.0641C191.466 76.8815 191.47 78.7724 191.052 80.5918H173.792C174.202 81.6301 174.926 82.5146 175.862 83.1218C176.851 83.748 178.002 84.0713 179.172 84.0518C180.167 84.1111 181.16 83.8964 182.041 83.4309C182.923 82.9654 183.66 82.267 184.172 81.4118L190.102 84.1418C188.987 85.9901 187.417 87.5222 185.542 88.5918C183.544 89.7226 181.278 90.2959 178.982 90.2517C177.309 90.2974 175.643 90.0087 174.082 89.4026C172.521 88.7964 171.097 87.885 169.892 86.7218C168.7 85.599 167.757 84.238 167.125 82.7271C166.492 81.2162 166.185 79.5892 166.222 77.9518C166.183 76.3189 166.482 74.6955 167.102 73.1843C167.721 71.673 168.648 70.3067 169.822 69.1718C171.002 68.0083 172.404 67.0957 173.946 66.489C175.488 65.8823 177.136 65.5941 178.792 65.6418ZM178.792 71.8418C177.766 71.8278 176.761 72.1394 175.922 72.7318C175.049 73.3299 174.357 74.1567 173.922 75.1218H183.632C183.297 74.1174 182.643 73.2502 181.769 72.6525C180.895 72.0549 179.85 71.7596 178.792 71.8118V71.8418Z" fill="#6DBF4B"/>
<path d="M207.368 89.7603H200.078V72.4503H192.648V66.0703H214.788V72.4503H207.358L207.368 89.7603Z" fill="#6DBF4B"/>
<path d="M233.442 65.6408C234.805 65.6323 236.151 65.948 237.368 66.5617C238.585 67.1755 239.639 68.0698 240.442 69.1708C242.251 71.7394 243.222 74.8042 243.222 77.9458C243.222 81.0874 242.251 84.1522 240.442 86.7208C239.639 87.8218 238.585 88.7161 237.368 89.3298C236.151 89.9436 234.805 90.2592 233.442 90.2508C231.574 90.2794 229.765 89.5966 228.382 88.3408C226.886 86.949 225.812 85.1643 225.282 83.1908V98.9108H217.992V66.0708H225.282V72.6408C225.81 70.6692 226.884 68.8871 228.382 67.5008C229.771 66.2605 231.581 65.5955 233.442 65.6408ZM230.702 83.6408C231.37 83.645 232.031 83.5021 232.638 83.2221C233.244 82.9421 233.782 82.532 234.212 82.0208C235.155 80.8875 235.671 79.4599 235.671 77.9858C235.671 76.5117 235.155 75.0841 234.212 73.9508C233.782 73.4396 233.244 73.0295 232.638 72.7495C232.031 72.4695 231.37 72.3265 230.702 72.3308C229.978 72.3087 229.257 72.4398 228.586 72.7156C227.916 72.9913 227.312 73.4054 226.812 73.9308C225.826 75.0516 225.283 76.4931 225.283 77.9858C225.283 79.4784 225.826 80.92 226.812 82.0408C227.316 82.5556 227.923 82.9581 228.594 83.2217C229.264 83.4854 229.983 83.6044 230.702 83.5708V83.6408Z" fill="#6DBF4B"/>
<path d="M249.637 86.6908C248.475 85.5438 247.552 84.1776 246.923 82.6712C246.293 81.1649 245.969 79.5485 245.969 77.9158C245.969 76.2831 246.293 74.6668 246.923 73.1604C247.552 71.6541 248.475 70.2878 249.637 69.1408C252.12 66.8704 255.362 65.6113 258.727 65.6113C262.091 65.6113 265.334 66.8704 267.817 69.1408C268.979 70.2878 269.901 71.6541 270.531 73.1604C271.161 74.6668 271.485 76.2831 271.485 77.9158C271.485 79.5485 271.161 81.1649 270.531 82.6712C269.901 84.1776 268.979 85.5438 267.817 86.6908C265.334 88.9613 262.091 90.2203 258.727 90.2203C255.362 90.2203 252.12 88.9613 249.637 86.6908ZM255.017 73.8808C254.055 75.0054 253.527 76.4363 253.527 77.9158C253.527 79.3953 254.055 80.8262 255.017 81.9508C255.49 82.4615 256.064 82.8689 256.703 83.1475C257.341 83.4261 258.03 83.57 258.727 83.57C259.423 83.57 260.112 83.4261 260.751 83.1475C261.389 82.8689 261.963 82.4615 262.437 81.9508C263.392 80.8235 263.917 79.3936 263.917 77.9158C263.917 76.438 263.392 75.0081 262.437 73.8808C261.963 73.3701 261.389 72.9627 260.751 72.6841C260.112 72.4055 259.423 72.2617 258.727 72.2617C258.03 72.2617 257.341 72.4055 256.703 72.6841C256.064 72.9627 255.49 73.3701 255.017 73.8808Z" fill="#6DBF4B"/>
<path d="M282.433 89.7603H275.133V66.0703H293.793V72.4503H282.433V89.7603Z" fill="#6DBF4B"/>
<path d="M311.997 65.6407C313.36 65.6307 314.706 65.9456 315.924 66.5595C317.141 67.1734 318.194 68.0685 318.997 69.1707C320.806 71.7393 321.777 74.8041 321.777 77.9457C321.777 81.0873 320.806 84.1522 318.997 86.7207C318.194 87.823 317.141 88.7181 315.924 89.332C314.706 89.9459 313.36 90.2608 311.997 90.2507C310.129 90.2773 308.321 89.5948 306.937 88.3408C305.441 86.9489 304.367 85.1642 303.837 83.1907V98.9107H296.547V66.0707H303.837V72.6407C304.364 70.6691 305.439 68.8871 306.937 67.5007C308.327 66.2622 310.135 65.5975 311.997 65.6407ZM309.267 83.6407C309.935 83.6429 310.595 83.4991 311.201 83.2192C311.807 82.9394 312.345 82.5303 312.777 82.0208C313.714 80.8849 314.227 79.4583 314.227 77.9857C314.227 76.5132 313.714 75.0866 312.777 73.9507C312.345 73.4412 311.807 73.0321 311.201 72.7523C310.595 72.4724 309.935 72.3286 309.267 72.3307C308.541 72.3098 307.819 72.4413 307.147 72.7169C306.475 72.9926 305.869 73.4061 305.367 73.9308C304.381 75.0516 303.837 76.4931 303.837 77.9857C303.837 79.4784 304.381 80.9199 305.367 82.0407C305.873 82.5548 306.482 82.9567 307.154 83.2202C307.826 83.4838 308.546 83.6032 309.267 83.5707V83.6407Z" fill="#6DBF4B"/>
<path d="M334.423 87.7603L340.423 66.0703H347.793L338.793 98.8803H331.413L333.923 89.7603H327.993L321.383 66.0703H329.223L334.423 87.7603Z" fill="#6DBF4B"/>
<path d="M356.892 89.7603H349.602V66.0703H372.842V89.7603H365.552V72.4503H356.892V89.7603Z" fill="#6DBF4B"/>
<path d="M384.688 89.7603H377.398V66.0703H400.638V89.7603H393.348V72.4503H384.688V89.7603Z" fill="#6DBF4B"/>
<path fill-rule="evenodd" clip-rule="evenodd" d="M39.3694 25.5115L26.0594 33.1915L12.7894 40.8815C8.8209 43.0248 5.52504 46.2274 3.2687 50.1327C1.01235 54.0381 -0.115945 58.4929 0.00941773 63.0015V93.7415C-0.115526 98.2513 1.01283 102.707 3.26903 106.614C5.52523 110.521 8.82086 113.725 12.7894 115.871L26.0994 123.551L39.4094 131.231C43.2513 133.595 47.6736 134.846 52.1844 134.846C56.6952 134.846 61.1175 133.595 64.9594 131.231L78.2694 123.551L91.5694 115.871C95.538 113.725 98.8336 110.521 101.09 106.614C103.346 102.707 104.474 98.2513 104.349 93.7415V63.0015C104.475 58.4929 103.346 54.0381 101.09 50.1327C98.8338 46.2274 95.5379 43.0248 91.5694 40.8815L78.2694 33.1915L64.9594 25.5115C61.1175 23.1479 56.6952 21.8965 52.1844 21.8965C47.6736 21.8965 43.2513 23.1479 39.4094 25.5115H39.3694Z" fill="#F55D17"/>
<path fill-rule="evenodd" clip-rule="evenodd" d="M82.7891 26.371C86.6531 27.1075 90.6309 26.9971 94.4482 26.0475C98.2654 25.0979 101.831 23.3316 104.9 20.8705C107.968 18.4093 110.467 15.3119 112.222 11.7919C113.978 8.27177 114.949 4.41277 115.069 0.480999C111.205 -0.255486 107.227 -0.145111 103.41 0.804516C99.5927 1.75414 96.0268 3.52042 92.9583 5.98155C89.8897 8.44267 87.3915 11.5401 85.6358 15.0602C83.8802 18.5802 82.909 22.4392 82.7891 26.371Z" fill="url(#paint0_linear_946_6697)"/>
<path d="M36.9163 102.061C35.3886 102.061 33.9235 101.454 32.8433 100.374C31.763 99.2941 31.1562 97.829 31.1562 96.3014V60.4414C31.1562 59.6854 31.3052 58.9369 31.5948 58.2386C31.8844 57.5404 32.309 56.906 32.844 56.372C33.379 55.8379 34.0139 55.4146 34.7127 55.1262C35.4115 54.8378 36.1603 54.6901 36.9163 54.6914H67.3662C68.8912 54.6914 70.3537 55.2972 71.4321 56.3755C72.5104 57.4538 73.1162 58.9164 73.1162 60.4414V96.3014C73.1162 97.8273 72.5107 99.2909 71.4327 100.371C70.3546 101.451 68.8921 102.059 67.3662 102.061C66.6102 102.061 65.8617 101.912 65.1634 101.623C64.4652 101.333 63.8309 100.909 63.2969 100.374C62.7628 99.8387 62.3395 99.2037 62.0511 98.5049C61.7627 97.8061 61.615 97.0573 61.6163 96.3014V70.6414C61.6163 69.8854 61.4671 69.1369 61.1775 68.4387C60.888 67.7404 60.4635 67.1061 59.9285 66.572C59.3935 66.0379 58.7585 65.6146 58.0597 65.3262C57.3609 65.0378 56.6121 64.8901 55.8562 64.8914H48.4163C47.6608 64.8901 46.9125 65.0379 46.2143 65.3264C45.5161 65.6149 44.8816 66.0384 44.3474 66.5726C43.8132 67.1068 43.3897 67.7412 43.1012 68.4394C42.8127 69.1376 42.665 69.8859 42.6663 70.6414V96.3514C42.6531 97.8686 42.0418 99.3194 40.9652 100.388C39.8886 101.457 38.4336 102.059 36.9163 102.061Z" fill="white"/>
</g>
<defs>
<linearGradient id="paint0_linear_946_6697" x1="111.319" y1="6.771" x2="87.9391" y2="19.331" gradientUnits="userSpaceOnUse">
<stop stop-color="#C2D726"/>
<stop offset="1" stop-color="#6DBF4B"/>
</linearGradient>
<clipPath id="clip0_946_6697">
<rect width="401" height="135" fill="white"/>
</clipPath>
</defs>
</svg>
