<svg viewBox="0 0 40 47" fill="none" xmlns="http://www.w3.org/2000/svg">
<path fill-rule="evenodd" clip-rule="evenodd" d="M13.5811 9.24821L8.98957 11.9L4.41189 14.5552C3.0429 15.2953 1.90594 16.4011 1.12759 17.7496C0.349225 19.098 -0.0399969 20.6362 0.00324878 22.193V32.807C-0.0398524 34.3642 0.349391 35.9029 1.1277 37.2519C1.90601 38.6009 3.04289 39.7072 4.41189 40.4482L9.00337 43.1L13.5949 45.7518C14.9202 46.5681 16.4457 47 18.0018 47C19.5578 47 21.0834 46.5681 22.4087 45.7518L27.0002 43.1L31.5882 40.4482C32.9572 39.7072 34.0941 38.6009 34.8725 37.2519C35.6507 35.9029 36.0398 34.3642 35.9967 32.807V22.193C36.0402 20.6362 35.6507 19.098 34.8725 17.7496C34.0942 16.4011 32.9572 15.2953 31.5882 14.5552L27.0002 11.9L22.4087 9.24821C21.0834 8.43209 19.5578 8 18.0018 8C16.4457 8 14.9202 8.43209 13.5949 9.24821H13.5811Z" fill="#F55D17"/>
<path fill-rule="evenodd" clip-rule="evenodd" d="M29 8.83878C30.3167 9.08563 31.6722 9.04863 32.9731 8.73035C34.2738 8.41208 35.4889 7.82006 36.5347 6.99518C37.5802 6.17025 38.4318 5.1321 39.0298 3.9523C39.6282 2.77245 39.9591 1.47903 40 0.161217C38.6833 -0.0856313 37.3277 -0.0486369 36.027 0.26965C34.7262 0.587936 33.511 1.17994 32.4654 2.00484C31.4197 2.82973 30.5684 3.8679 29.9701 5.04773C29.3718 6.22753 29.0409 7.52096 29 8.83878Z" fill="url(#paint0_linear_1133_18800)"/>
<path d="M12.8899 35.573C12.3565 35.573 11.845 35.3614 11.4679 34.985C11.0908 34.6086 10.8789 34.0979 10.8789 33.5655V21.0666C10.8789 20.8031 10.9309 20.5423 11.032 20.2989C11.1331 20.0555 11.2813 19.8344 11.4681 19.6483C11.6549 19.4621 11.8766 19.3146 12.1206 19.2141C12.3645 19.1135 12.6259 19.062 12.8899 19.0625H23.5208C24.0532 19.0625 24.5638 19.2737 24.9403 19.6495C25.3168 20.0253 25.5283 20.5351 25.5283 21.0666V33.5655C25.5283 34.0973 25.3169 34.6074 24.9405 34.984C24.5641 35.3604 24.0535 35.5723 23.5208 35.573C23.2569 35.573 22.9955 35.5211 22.7517 35.4203C22.508 35.3193 22.2865 35.1715 22.1001 34.985C21.9136 34.7984 21.7658 34.577 21.6651 34.3335C21.5644 34.0899 21.5129 33.8289 21.5133 33.5655V24.6218C21.5133 24.3583 21.4613 24.0974 21.3602 23.8541C21.2591 23.6107 21.1109 23.3896 20.9241 23.2034C20.7373 23.0173 20.5156 22.8697 20.2716 22.7692C20.0277 22.6687 19.7663 22.6172 19.5023 22.6177H16.9048C16.6411 22.6172 16.3798 22.6687 16.1361 22.7693C15.8923 22.8698 15.6708 23.0174 15.4843 23.2036C15.2978 23.3898 15.15 23.6109 15.0492 23.8543C14.9485 24.0977 14.8969 24.3585 14.8974 24.6218V33.5829C14.8928 34.1117 14.6793 34.6174 14.3035 34.9899C13.9276 35.3625 13.4196 35.5723 12.8899 35.573Z" fill="white"/>
<defs>
<linearGradient id="paint0_linear_1133_18800" x1="38.7221" y1="2.26944" x2="30.8146" y2="6.58841" gradientUnits="userSpaceOnUse">
<stop stop-color="#C2D726"/>
<stop offset="1" stop-color="#6DBF4B"/>
</linearGradient>
</defs>
</svg>
