<svg viewBox="0 0 24 26" fill="none" xmlns="http://www.w3.org/2000/svg">
<path class="outer-pin" fill-rule="evenodd" clip-rule="evenodd" d="M9.05404 0.832138L5.99305 2.6L2.94126 4.37016C2.0286 4.86353 1.27063 5.60074 0.751724 6.4997C0.232817 7.39869 -0.0266646 8.42414 0.00216586 9.46197V16.538C-0.0265682 17.5761 0.232927 18.6019 0.7518 19.5013C1.27067 20.4006 2.02859 21.1382 2.94126 21.6321L6.00225 23.4L9.06323 25.1679C9.94678 25.712 10.9638 26 12.0012 26C13.0386 26 14.0556 25.712 14.9391 25.1679L18.0001 23.4L21.0588 21.6321C21.9715 21.1382 22.7294 20.4006 23.2483 19.5013C23.7671 18.6019 24.0266 17.5761 23.9978 16.538V9.46197C24.0268 8.42414 23.7671 7.39869 23.2483 6.4997C22.7294 5.60074 21.9715 4.86353 21.0588 4.37016L18.0001 2.6L14.9391 0.832138C14.0556 0.28806 13.0386 0 12.0012 0C10.9638 0 9.94678 0.28806 9.06323 0.832138H9.05404Z" />
<path class="inner-pin" fill-rule="evenodd" clip-rule="evenodd" d="M10.7725 8.32005L9.4971 9L8.22553 9.68083C7.84525 9.87059 7.52943 10.1541 7.31322 10.4999C7.09701 10.8456 6.98889 11.2401 7.0009 11.6392V14.3608C6.98893 14.7601 7.09705 15.1546 7.31325 15.5005C7.52945 15.8464 7.84525 16.1301 8.22553 16.3201L9.50094 17L10.7763 17.6799C11.1445 17.8892 11.5683 18 12.0005 18C12.4327 18 12.8565 17.8892 13.2246 17.6799L14.5001 17L15.7745 16.3201C16.1548 16.1301 16.4706 15.8464 16.6868 15.5005C16.903 15.1546 17.0111 14.7601 16.9991 14.3608V11.6392C17.0112 11.2401 16.903 10.8456 16.6868 10.4999C16.4706 10.1541 16.1548 9.87059 15.7745 9.68083L14.5001 9L13.2246 8.32005C12.8565 8.11079 12.4327 8 12.0005 8C11.5683 8 11.1445 8.11079 10.7763 8.32005H10.7725Z" />
</svg>
